<?xml version="1.0" encoding="utf-8"?>
<!-- Generator: Adobe Illustrator 23.0.1, SVG Export Plug-In . SVG Version: 6.00 Build 0)  -->
<svg version="1.1" id="Layer_1" xmlns="http://www.w3.org/2000/svg" xmlns:xlink="http://www.w3.org/1999/xlink" x="0px" y="0px"
	 viewBox="0 0 1300 600" style="enable-background:new 0 0 1300 600;" xml:space="preserve">
<style type="text/css">
	.st0{fill:#5ACC93;}
	.st1{fill:#4BF7A9;}
	.st2{fill:#F96753;}
	.st3{font-family:'OpenSans-Semibold';}
	.st4{font-size:184.4684px;}
	.st5{letter-spacing:5.28;}
	.st6{font-size:83.1443px;}
	.st7{letter-spacing:2.44;}
	.st8{letter-spacing:2.6;}
	.st9{fill:#323232;}
	.st10{fill-rule:evenodd;clip-rule:evenodd;fill:#FFFFFF;}
	.st11{fill:#FF4F19;}
	.st12{fill-rule:evenodd;clip-rule:evenodd;fill:#FFDCC0;}
	.st13{fill:#FAC947;}
	.st14{fill:#FFFFFF;}
	.st15{fill:#FF9323;}
</style>
<rect y="0" class="st0" width="1299.07" height="600"/>
<g>
	<polygon class="st1" points="1045.06,0 1300,0 1300,600 	"/>
	<polygon class="st1" points="255.88,600 0.93,600 0.93,0 	"/>
</g>
<g>
	<text transform="matrix(0.568 0 0 1 443.7842 361.1367)" class="st2 st3 st4 st5">CENTER</text>
</g>
<g>
	<text transform="matrix(0.8203 0 0 1 459.2739 455.9932)" class="st2 st3 st6 st7">Blog</text>
</g>
<text id="CODE" transform="matrix(0.7698 0 0 1 656.999 201.7246)" class="st2 st3 st6 st8">CODE</text>
<g>
	<g>
		<path class="st9" d="M45.28,250.64l240.58-1.02c3.09-0.01,5.62,3.26,5.62,7.26L292,459.45c0.01,4.01-2.51,7.28-5.6,7.3
			l-240.58,1.03c-3.08,0.01-5.62-3.26-5.63-7.26l-0.5-202.56C39.67,253.94,42.2,250.66,45.28,250.64z"/>
		<path class="st10" d="M265.68,279.45l7.77,0.03c0.88,0,1.6,0.95,1.6,2.09l-0.02,7.5c-0.01,1.15-0.72,2.08-1.61,2.08l-7.77-0.03
			c-0.88,0-1.6-0.94-1.6-2.08l0.02-7.51C264.07,280.37,264.8,279.43,265.68,279.45z"/>
		<path class="st10" d="M266.01,293.74l7.06,0.03c1.07,0,1.96,1.15,1.95,2.55l-0.02,10.16c0,1.4-0.89,2.54-1.96,2.54l-7.07-0.03
			c-1.07,0-1.95-1.15-1.95-2.55l0.02-10.16C264.05,294.88,264.93,293.74,266.01,293.74z"/>
		<path class="st10" d="M265.98,311.63l7.06,0.01c1.09,0,1.96,1.15,1.96,2.55l-0.02,10.14c0,1.41-0.89,2.55-1.96,2.54l-7.06-0.03
			c-1.08,0-1.96-1.15-1.95-2.55l0.02-10.16C264,312.76,264.89,311.62,265.98,311.63z"/>
		<path class="st10" d="M265.93,329.5l7.06,0.03c1.08,0,1.96,1.15,1.96,2.55l-0.02,10.16c-0.01,1.41-0.89,2.54-1.97,2.54l-7.06-0.03
			c-1.07-0.01-1.96-1.15-1.96-2.55l0.02-10.14C263.96,330.63,264.84,329.5,265.93,329.5z"/>
		<path class="st10" d="M265.89,347.37l7.06,0.03c1.08,0,1.96,1.15,1.95,2.55l-0.02,10.14c0,1.41-0.89,2.55-1.96,2.55l-7.06-0.03
			c-1.08-0.01-1.96-1.15-1.96-2.55l0.02-10.16C263.93,348.53,264.81,347.39,265.89,347.37z"/>
		<path class="st10" d="M265.85,365.27l7.06,0.03c1.08,0,1.96,1.15,1.96,2.55L274.85,378c-0.01,1.4-0.89,2.54-1.97,2.54l-7.06-0.03
			c-1.08,0-1.96-1.15-1.96-2.55l0.02-10.16C263.89,366.4,264.78,365.27,265.85,365.27z"/>
		<path class="st10" d="M251.96,279.39l7.77,0.03c0.88,0,1.6,0.94,1.59,2.08l-0.01,7.5c-0.01,1.15-0.73,2.08-1.61,2.08l-7.77-0.03
			c-0.88,0-1.6-0.94-1.59-2.08l0.02-7.5C250.34,280.33,251.07,279.39,251.96,279.39z"/>
		<path class="st10" d="M239.73,293.66l19.47,0.07c1.16,0.01,2.09,1.23,2.09,2.74l-0.02,9.79c0,1.5-0.94,2.72-2.1,2.72l-19.47-0.07
			c-1.15-0.01-2.1-1.23-2.1-2.74l0.02-9.79C237.64,294.86,238.58,293.66,239.73,293.66z"/>
		<path class="st10" d="M248.64,311.55l10.53,0.05c1.15-0.01,2.09,1.22,2.1,2.72l-0.02,9.79c-0.01,1.49-0.95,2.72-2.11,2.71
			l-10.53-0.03c-1.15-0.01-2.1-1.23-2.09-2.72l0.02-9.81C246.54,312.77,247.49,311.57,248.64,311.55z"/>
		<path class="st10" d="M238.12,329.41l21.01,0.08c1.15,0,2.1,1.23,2.1,2.74l-0.02,9.79c0,1.49-0.95,2.72-2.11,2.71l-21.01-0.07
			c-1.15-0.01-2.09-1.25-2.09-2.74l0.01-9.79C236.01,330.62,236.96,329.4,238.12,329.41z"/>
		<path class="st10" d="M252.17,347.33l7.07,0.03c1.07,0,1.95,1.17,1.95,2.56l-0.02,10.16c0,1.4-0.89,2.52-1.97,2.54l-7.06-0.03
			c-1.08,0-1.96-1.15-1.95-2.55l0.02-10.16C250.2,348.47,251.09,347.33,252.17,347.33z"/>
		<path class="st10" d="M252.13,365.22l7.05,0.03c1.09,0,1.97,1.15,1.96,2.55l-0.02,10.16c-0.01,1.4-0.89,2.54-1.97,2.54l-7.06-0.03
			c-1.08,0-1.96-1.15-1.96-2.55l0.02-10.16C250.17,366.36,251.05,365.22,252.13,365.22z"/>
		<path class="st10" d="M239.27,279.34l6.72,0.03c0.88,0,1.6,0.94,1.6,2.09l-0.02,7.5c-0.01,1.15-0.72,2.08-1.61,2.08l-6.72-0.03
			c-0.88,0-1.61-0.95-1.6-2.09l0.01-7.5C237.67,280.28,238.39,279.34,239.27,279.34z"/>
		<path class="st10" d="M226.39,279.3l6.72,0.01c0.89,0.01,1.6,0.95,1.6,2.09l-0.02,7.49c0,1.15-0.72,2.09-1.6,2.08l-6.72-0.03
			c-0.88,0-1.6-0.94-1.59-2.09l0.01-7.5C224.78,280.23,225.51,279.3,226.39,279.3z"/>
		<path class="st10" d="M213.51,279.25l6.72,0.03c0.88,0.01,1.59,0.94,1.59,2.09l-0.02,7.5c0,1.14-0.72,2.08-1.61,2.08l-6.72-0.03
			c-0.89,0-1.6-0.94-1.6-2.09l0.01-7.49C211.9,280.19,212.62,279.25,213.51,279.25z"/>
		<path class="st10" d="M200.62,279.21l6.73,0.03c0.88,0.01,1.6,0.95,1.6,2.09l-0.02,7.49c0,1.15-0.72,2.09-1.6,2.08l-6.72-0.03
			c-0.89,0-1.6-0.95-1.6-2.09l0.01-7.49C199.02,280.13,199.74,279.21,200.62,279.21z"/>
		<path class="st10" d="M187.75,279.15l6.72,0.03c0.88,0.01,1.6,0.95,1.6,2.09l-0.02,7.5c-0.01,1.15-0.73,2.09-1.61,2.08l-6.72-0.03
			c-0.88-0.01-1.6-0.95-1.6-2.09l0.02-7.5C186.13,280.09,186.85,279.15,187.75,279.15z"/>
		<path class="st10" d="M174.86,279.11l6.72,0.01c0.88,0,1.6,0.95,1.6,2.08l-0.01,7.5c0,1.14-0.73,2.08-1.61,2.08l-6.72-0.03
			c-0.88,0-1.6-0.95-1.6-2.09l0.01-7.5C173.25,280.04,173.97,279.11,174.86,279.11z"/>
		<path class="st10" d="M161.97,279.07l6.73,0.01c0.88,0.01,1.6,0.94,1.6,2.09l-0.02,7.5c0,1.14-0.72,2.08-1.61,2.08l-6.72-0.03
			c-0.88,0-1.6-0.94-1.6-2.09l0.01-7.5C160.36,280,161.08,279.06,161.97,279.07z"/>
		<path class="st10" d="M149.08,279.03l6.72,0.01c0.89,0.01,1.6,0.95,1.6,2.09l-0.02,7.5c0,1.14-0.72,2.08-1.6,2.07l-6.72-0.03
			c-0.88,0-1.6-0.94-1.6-2.09l0.02-7.5C147.48,279.94,148.2,279.02,149.08,279.03z"/>
		<path class="st10" d="M136.2,278.98l6.73,0.01c0.88,0,1.59,0.94,1.59,2.09l-0.01,7.49c0,1.15-0.72,2.08-1.6,2.08l-6.72-0.03
			c-0.89,0-1.6-0.94-1.6-2.08l0.01-7.5C134.59,279.9,135.32,278.98,136.2,278.98z"/>
		<path class="st10" d="M123.31,278.94l6.72,0.01c0.89,0.01,1.6,0.94,1.6,2.09l-0.01,7.5c-0.01,1.14-0.72,2.08-1.61,2.08l-6.72-0.03
			c-0.88-0.01-1.59-0.95-1.59-2.09l0.01-7.49C121.71,279.86,122.43,278.92,123.31,278.94z"/>
		<path class="st10" d="M110.43,278.88l6.72,0.01c0.88,0,1.6,0.95,1.6,2.09l-0.01,7.5c0,1.14-0.72,2.08-1.61,2.07l-6.72-0.03
			c-0.88,0-1.6-0.94-1.6-2.08l0.01-7.51C108.81,279.82,109.55,278.87,110.43,278.88z"/>
		<path class="st10" d="M97.54,278.83l6.73,0.03c0.88,0,1.6,0.95,1.59,2.09l-0.01,7.5c0,1.15-0.73,2.09-1.6,2.08l-6.73-0.03
			c-0.88-0.01-1.6-0.95-1.59-2.09l0.01-7.5C95.94,279.77,96.66,278.83,97.54,278.83z"/>
		<path class="st10" d="M84.66,278.79l6.72,0.03c0.88,0,1.6,0.95,1.6,2.09l-0.01,7.5c0,1.14-0.72,2.07-1.61,2.07l-6.72-0.01
			c-0.88,0-1.6-0.95-1.6-2.09l0.02-7.5C83.05,279.73,83.78,278.79,84.66,278.79z"/>
		<path class="st10" d="M71.77,278.74l6.72,0.03c0.88,0.01,1.6,0.94,1.59,2.09l-0.02,7.5c0,1.14-0.72,2.08-1.6,2.08l-6.72-0.03
			c-0.88-0.01-1.6-0.94-1.6-2.09l0.01-7.5C70.17,279.68,70.89,278.74,71.77,278.74z"/>
		<path class="st10" d="M57.3,278.7l7.77,0.03c0.88,0.01,1.6,0.94,1.6,2.09l-0.02,7.5c0,1.15-0.72,2.08-1.6,2.08l-7.77-0.03
			c-0.88,0-1.6-0.94-1.6-2.09l0.02-7.5C55.7,279.64,56.41,278.68,57.3,278.7z"/>
		<path class="st10" d="M225.84,293.59l6.92,0.04c1.06,0,1.92,1.13,1.92,2.51l-0.02,10.25c0,1.37-0.87,2.5-1.93,2.5l-6.93-0.03
			c-1.06-0.01-1.92-1.13-1.92-2.51l0.02-10.25C223.9,294.72,224.77,293.59,225.84,293.59z"/>
		<path class="st10" d="M211.86,293.55l6.93,0.03c1.05,0,1.92,1.14,1.92,2.51l-0.02,10.24c0,1.38-0.87,2.5-1.93,2.5l-6.93-0.03
			c-1.06,0-1.92-1.14-1.92-2.51l0.02-10.25C209.93,294.66,210.8,293.53,211.86,293.55z"/>
		<path class="st10" d="M197.88,293.49l6.93,0.01c1.06,0.01,1.93,1.14,1.92,2.51l-0.02,10.25c0,1.38-0.88,2.5-1.93,2.5l-6.93-0.03
			c-1.06,0-1.92-1.13-1.92-2.51l0.02-10.25C195.95,294.61,196.82,293.49,197.88,293.49z"/>
		<path class="st10" d="M183.9,293.44l6.93,0.03c1.05,0,1.92,1.13,1.92,2.51l-0.03,10.26c0,1.37-0.87,2.48-1.93,2.48l-6.93-0.03
			c-1.05,0-1.92-1.14-1.92-2.51l0.02-10.24C181.97,294.57,182.85,293.44,183.9,293.44z"/>
		<path class="st10" d="M169.91,293.4l6.93,0.03c1.06,0,1.92,1.14,1.92,2.5l-0.02,10.25c0,1.38-0.87,2.5-1.93,2.51l-6.93-0.03
			c-1.06,0-1.92-1.13-1.92-2.51l0.02-10.25C167.99,294.51,168.85,293.39,169.91,293.4z"/>
		<path class="st10" d="M156.04,293.76l6.93,0.03c1.06,0,1.92,1.14,1.92,2.5l-0.02,10.25c0,1.38-0.87,2.5-1.93,2.51l-6.93-0.03
			c-1.05,0-1.92-1.13-1.92-2.5l0.02-10.25C154.11,294.88,154.98,293.75,156.04,293.76z"/>
		<path class="st10" d="M141.96,293.29l6.93,0.03c1.06,0.01,1.93,1.14,1.92,2.51l-0.02,10.25c-0.01,1.37-0.87,2.5-1.93,2.5
			l-6.92-0.01c-1.06-0.01-1.92-1.14-1.92-2.51l0.02-10.25C140.03,294.41,140.9,293.29,141.96,293.29z"/>
		<path class="st10" d="M127.98,293.24l6.93,0.03c1.06,0,1.92,1.14,1.92,2.51l-0.02,10.25c0,1.37-0.87,2.5-1.93,2.48l-6.93-0.01
			c-1.06-0.01-1.92-1.14-1.92-2.51l0.02-10.25C126.06,294.35,126.92,293.24,127.98,293.24z"/>
		<path class="st10" d="M114,293.19l6.93,0.03c1.06,0,1.92,1.13,1.92,2.51l-0.02,10.25c0,1.37-0.87,2.5-1.93,2.5l-6.92-0.03
			c-1.06-0.01-1.92-1.14-1.92-2.51l0.02-10.25C112.07,294.31,112.94,293.19,114,293.19z"/>
		<path class="st10" d="M100.02,293.15l6.93,0.03c1.06,0,1.92,1.13,1.92,2.5l-0.02,10.25c-0.01,1.37-0.87,2.5-1.93,2.5l-6.93-0.03
			c-1.06,0-1.92-1.14-1.92-2.51l0.02-10.24C98.1,294.26,98.96,293.15,100.02,293.15z"/>
		<path class="st10" d="M86.04,293.11l6.93,0.03c1.06,0,1.92,1.13,1.92,2.51l-0.02,10.25c0,1.38-0.87,2.5-1.93,2.5l-6.93-0.03
			c-1.07,0-1.93-1.14-1.92-2.51l0.02-10.25C84.11,294.21,84.98,293.08,86.04,293.11z"/>
		<path class="st10" d="M72.06,293.04l6.93,0.03c1.06,0,1.93,1.14,1.92,2.51l-0.02,10.24c-0.01,1.38-0.87,2.51-1.93,2.5l-6.93-0.03
			c-1.06,0-1.92-1.13-1.92-2.5l0.03-10.25C70.14,294.17,71.01,293.04,72.06,293.04z"/>
		<path class="st10" d="M57.63,292.98l7.06,0.03c1.07,0,1.96,1.15,1.95,2.55l-0.02,10.16c0,1.4-0.89,2.55-1.97,2.54l-7.06-0.01
			c-1.08-0.01-1.96-1.15-1.96-2.56l0.03-10.16C55.66,294.14,56.55,293,57.63,292.98z"/>
		<path class="st10" d="M57.72,310.87l12.85,0.07c1.15,0,2.1,1.25,2.1,2.72l-0.02,9.81c-0.01,1.49-0.95,2.72-2.11,2.71l-12.85-0.07
			c-1.15,0-2.1-1.23-2.1-2.74l0.02-9.79C55.63,312.09,56.57,310.88,57.72,310.87z"/>
		<path class="st10" d="M57.68,328.75l17.27,0.05c1.15,0.01,2.1,1.23,2.09,2.74l-0.01,9.79c-0.01,1.5-0.95,2.71-2.11,2.71
			l-17.27-0.05c-1.15-0.01-2.1-1.23-2.09-2.72l0.02-9.81C55.59,329.97,56.53,328.75,57.68,328.75z"/>
		<path class="st10" d="M57.65,346.65l23.09,0.09c1.15,0,2.1,1.23,2.1,2.72l-0.02,9.81c-0.01,1.49-0.95,2.72-2.11,2.71l-23.09-0.09
			c-1.15,0-2.09-1.23-2.1-2.74l0.02-9.78C55.55,347.86,56.5,346.64,57.65,346.65z"/>
		<path class="st10" d="M57.61,364.52l10.27,0.03c1.15,0,2.1,1.23,2.09,2.72l-0.02,9.81c0,1.5-0.95,2.72-2.11,2.72l-10.27-0.04
			c-1.15,0-2.1-1.22-2.09-2.72l0.02-9.81C55.51,365.74,56.47,364.52,57.61,364.52z"/>
		<path class="st10" d="M78.15,310.95l7.41,0.03c1.14,0,2.07,1.21,2.05,2.68l-0.02,9.9c-0.01,1.48-0.93,2.68-2.08,2.67l-7.41-0.03
			c-1.13-0.01-2.05-1.21-2.05-2.68l0.02-9.89C76.09,312.14,77.01,310.95,78.15,310.95z"/>
		<path class="st10" d="M92.39,311l7.41,0.03c1.13,0,2.05,1.21,2.05,2.68l-0.02,9.89c0,1.48-0.93,2.68-2.07,2.68l-7.41-0.04
			c-1.14,0-2.07-1.21-2.05-2.68l0.01-9.89C90.33,312.2,91.26,310.99,92.39,311z"/>
		<path class="st10" d="M106.64,311.06l7.41,0.03c1.13,0,2.05,1.21,2.05,2.68l-0.02,9.89c0,1.48-0.92,2.68-2.05,2.68l-7.41-0.03
			c-1.13,0-2.07-1.22-2.05-2.68l0.02-9.9C104.58,312.25,105.51,311.04,106.64,311.06z"/>
		<path class="st10" d="M120.88,311.1l7.41,0.03c1.13,0,2.07,1.21,2.05,2.68l-0.01,9.9c-0.01,1.48-0.94,2.67-2.08,2.67l-7.41-0.03
			c-1.13,0-2.07-1.22-2.07-2.68l0.02-9.9C118.81,312.29,119.75,311.1,120.88,311.1z"/>
		<path class="st10" d="M135.12,311.15l7.42,0.03c1.13,0.01,2.05,1.22,2.05,2.68l-0.02,9.9c0,1.48-0.93,2.67-2.07,2.67l-7.42-0.03
			c-1.13,0-2.05-1.21-2.04-2.68l0.02-9.9C133.06,312.34,133.98,311.15,135.12,311.15z"/>
		<path class="st10" d="M149.36,311.2l7.42,0.03c1.13,0,2.05,1.21,2.05,2.68l-0.02,9.89c-0.01,1.48-0.93,2.67-2.08,2.67l-7.41-0.03
			c-1.13,0-2.07-1.21-2.05-2.68l0.03-9.89C147.3,312.41,148.22,311.2,149.36,311.2z"/>
		<path class="st10" d="M163.61,311.26l7.41,0.03c1.14,0.01,2.07,1.22,2.05,2.68l-0.02,9.89c0,1.48-0.93,2.67-2.07,2.66l-7.42-0.03
			c-1.13,0-2.05-1.21-2.05-2.68l0.02-9.89C161.54,312.45,162.47,311.26,163.61,311.26z"/>
		<path class="st10" d="M177.84,311.3l7.42,0.03c1.13,0,2.05,1.21,2.05,2.68l-0.02,9.9c0,1.46-0.93,2.67-2.07,2.67l-7.41-0.03
			c-1.14,0-2.07-1.22-2.07-2.68l0.03-9.89C175.78,312.51,176.72,311.3,177.84,311.3z"/>
		<path class="st10" d="M192.09,311.35l7.42,0.03c1.13,0,2.07,1.21,2.05,2.68l-0.01,9.9c-0.01,1.48-0.93,2.67-2.07,2.67l-7.42-0.01
			c-1.14-0.01-2.05-1.22-2.05-2.68l0.02-9.9C190.02,312.56,190.95,311.35,192.09,311.35z"/>
		<path class="st10" d="M206.33,311.41l7.41,0.03c1.13,0,2.07,1.22,2.05,2.7l-0.02,9.89c-0.01,1.48-0.93,2.67-2.07,2.67l-7.41-0.03
			c-1.13,0-2.07-1.21-2.07-2.68l0.02-9.89C204.26,312.61,205.2,311.41,206.33,311.41z"/>
		<path class="st10" d="M220.57,311.46l7.41,0.03c1.13,0,2.05,1.21,2.07,2.68l-0.03,9.89c0,1.48-0.93,2.67-2.07,2.67l-7.42-0.03
			c-1.13,0-2.05-1.21-2.05-2.68l0.02-9.89C218.52,312.65,219.44,311.46,220.57,311.46z"/>
		<path class="st10" d="M234.81,311.51l7.41,0.03c1.13,0,2.05,1.21,2.05,2.68l-0.02,9.9c0,1.46-0.93,2.67-2.08,2.66l-7.41-0.03
			c-1.13,0-2.07-1.22-2.05-2.68l0.02-9.89C232.75,312.71,233.68,311.51,234.81,311.51z"/>
		<path class="st10" d="M82.07,328.85l7.42,0.03c1.13,0,2.05,1.21,2.05,2.68l-0.02,9.9c-0.01,1.46-0.93,2.67-2.07,2.66l-7.42-0.03
			c-1.13,0-2.05-1.21-2.05-2.68l0.02-9.89C80.01,330.04,80.94,328.85,82.07,328.85z"/>
		<path class="st10" d="M96.33,328.9l7.41,0.03c1.13,0,2.05,1.21,2.05,2.68l-0.02,9.9c0,1.48-0.94,2.67-2.07,2.67l-7.41-0.03
			c-1.14,0-2.07-1.21-2.05-2.67l0.02-9.9C94.26,330.09,95.18,328.89,96.33,328.9z"/>
		<path class="st10" d="M110.56,328.95l7.41,0.03c1.13,0,2.05,1.22,2.05,2.7l-0.02,9.89c0,1.48-0.92,2.68-2.07,2.67l-7.42-0.03
			c-1.13,0-2.05-1.21-2.05-2.68l0.02-9.89C108.49,330.15,109.42,328.94,110.56,328.95z"/>
		<path class="st10" d="M124.81,328.99l7.41,0.03c1.13,0,2.07,1.21,2.05,2.68l-0.02,9.89c-0.01,1.48-0.93,2.68-2.07,2.67l-7.41-0.03
			c-1.13-0.01-2.07-1.22-2.07-2.68l0.01-9.89C122.73,330.2,123.67,328.99,124.81,328.99z"/>
		<path class="st10" d="M139.05,329.05l7.41,0.03c1.13,0.01,2.07,1.22,2.05,2.68l-0.02,9.89c0,1.48-0.93,2.67-2.07,2.67l-7.41-0.03
			c-1.13,0-2.05-1.22-2.05-2.68l0.02-9.9C136.98,330.25,137.92,329.05,139.05,329.05z"/>
		<path class="st10" d="M153.28,329.1l7.41,0.03c1.13,0.01,2.05,1.22,2.05,2.68l-0.02,9.89c0,1.48-0.93,2.67-2.07,2.67l-7.41-0.03
			c-1.13,0-2.05-1.21-2.05-2.68l0.02-9.89C151.22,330.31,152.15,329.1,153.28,329.1z"/>
		<path class="st10" d="M167.53,329.14l7.42,0.03c1.13,0,2.07,1.21,2.05,2.68l-0.02,9.9c-0.01,1.46-0.94,2.67-2.08,2.67l-7.41-0.03
			c-1.13-0.01-2.05-1.21-2.05-2.68l0.02-9.89C165.47,330.35,166.39,329.15,167.53,329.14z"/>
		<path class="st10" d="M181.77,329.19l7.41,0.03c1.13,0.01,2.07,1.22,2.07,2.68l-0.02,9.9c0,1.46-0.93,2.67-2.07,2.67l-7.41-0.03
			c-1.13,0-2.07-1.21-2.05-2.68l0.02-9.89C179.7,330.4,180.63,329.19,181.77,329.19z"/>
		<path class="st10" d="M196.01,329.25l7.41,0.03c1.13,0,2.07,1.21,2.05,2.68l-0.02,9.9c0,1.46-0.93,2.67-2.07,2.67l-7.41-0.01
			c-1.13,0-2.05-1.21-2.05-2.68l0.02-9.9C193.95,330.46,194.87,329.25,196.01,329.25z"/>
		<path class="st10" d="M210.25,329.3l7.42,0.03c1.13,0.01,2.05,1.21,2.05,2.68l-0.02,9.89c0,1.48-0.93,2.68-2.07,2.68l-7.41-0.04
			c-1.14,0-2.07-1.21-2.05-2.68l0.02-9.89C208.19,330.51,209.12,329.29,210.25,329.3z"/>
		<path class="st10" d="M224.49,329.36l7.41,0.03c1.13,0,2.07,1.22,2.05,2.68l-0.02,9.89c0,1.48-0.93,2.68-2.07,2.67l-7.42-0.01
			c-1.13,0-2.07-1.21-2.05-2.68l0.02-9.9C222.43,330.55,223.36,329.34,224.49,329.36z"/>
		<path class="st10" d="M89.49,346.76l7.42,0.01c1.12,0.01,2.05,1.22,2.04,2.7l-0.01,9.89c-0.01,1.48-0.94,2.67-2.08,2.67L89.46,362
			c-1.14,0-2.07-1.21-2.05-2.7l0.02-9.89C87.44,347.95,88.36,346.74,89.49,346.76z"/>
		<path class="st10" d="M103.74,346.8l7.41,0.03c1.13,0,2.07,1.21,2.05,2.67l-0.02,9.9c0,1.46-0.93,2.67-2.07,2.67l-7.41-0.03
			c-1.13-0.01-2.07-1.22-2.05-2.68l0.02-9.89C101.67,348,102.61,346.8,103.74,346.8z"/>
		<path class="st10" d="M117.97,346.85l7.42,0.03c1.13,0,2.07,1.22,2.05,2.68l-0.02,9.9c-0.01,1.48-0.93,2.67-2.07,2.67l-7.41-0.03
			c-1.14-0.01-2.07-1.22-2.07-2.68l0.02-9.89C115.91,348.06,116.84,346.85,117.97,346.85z"/>
		<path class="st10" d="M132.21,346.9l7.41,0.04c1.13,0,2.07,1.21,2.07,2.68l-0.02,9.9c0,1.46-0.93,2.67-2.08,2.67l-7.41-0.03
			c-1.13,0-2.07-1.22-2.05-2.68l0.02-9.9C130.16,348.1,131.08,346.9,132.21,346.9z"/>
		<path class="st10" d="M146.46,346.96l7.42,0.03c1.13,0.01,2.05,1.21,2.05,2.68l-0.02,9.89c0.01,1.48-0.93,2.67-2.07,2.67
			l-7.41-0.03c-1.13,0-2.07-1.21-2.05-2.68l0.02-9.89C144.39,348.14,145.33,346.94,146.46,346.96z"/>
		<path class="st10" d="M160.71,347l7.42,0.03c1.13,0,2.07,1.21,2.05,2.68l-0.02,9.89c0,1.48-0.93,2.67-2.07,2.67l-7.41-0.03
			c-1.13-0.01-2.07-1.21-2.05-2.68l0.01-9.9C158.63,348.21,159.56,347.01,160.71,347z"/>
		<path class="st10" d="M174.95,347.07l7.41,0.01c1.13,0.01,2.05,1.22,2.05,2.7l-0.02,9.89c0,1.48-0.93,2.67-2.07,2.67l-7.41-0.03
			c-1.13,0-2.07-1.21-2.05-2.68l0.01-9.89C172.88,348.26,173.81,347.07,174.95,347.07z"/>
		<path class="st10" d="M189.18,347.11l7.42,0.03c1.14,0.01,2.07,1.21,2.05,2.68l-0.01,9.89c-0.01,1.48-0.94,2.67-2.08,2.67
			l-7.42-0.04c-1.13,0-2.07-1.21-2.04-2.68l0.02-9.89C187.13,348.31,188.05,347.11,189.18,347.11z"/>
		<path class="st10" d="M203.44,347.16l7.41,0.03c1.13,0,2.05,1.21,2.05,2.68l-0.02,9.89c0,1.48-0.93,2.68-2.05,2.67l-7.42-0.03
			c-1.13-0.01-2.05-1.21-2.05-2.68l0.02-9.89C201.36,348.35,202.3,347.16,203.44,347.16z"/>
		<path class="st10" d="M217.67,347.21l7.42,0.03c1.14,0,2.05,1.21,2.05,2.68l-0.02,9.9c0,1.46-0.93,2.67-2.07,2.67l-7.41-0.04
			c-1.14,0-2.07-1.22-2.07-2.68l0.02-9.89C215.6,348.41,216.53,347.21,217.67,347.21z"/>
		<path class="st10" d="M231.95,347.27l13.41,0.04c1.15,0,2.11,1.23,2.1,2.74l-0.02,9.79c0,1.5-0.95,2.72-2.11,2.72l-13.41-0.05
			c-1.16,0-2.1-1.22-2.1-2.72l0.03-9.79C229.85,348.49,230.79,347.25,231.95,347.27z"/>
		<path class="st10" d="M74.98,364.59l7.41,0.03c1.14,0,2.05,1.21,2.07,2.68l-0.02,9.89c0,1.48-0.93,2.67-2.07,2.67l-7.41-0.03
			c-1.13,0-2.07-1.21-2.05-2.68l0.02-9.89C72.93,365.78,73.85,364.59,74.98,364.59z"/>
		<path class="st10" d="M89.23,364.63l7.41,0.03c1.14,0,2.07,1.21,2.05,2.68l-0.02,9.9c0,1.46-0.93,2.67-2.07,2.67l-7.41-0.03
			c-1.13,0-2.05-1.21-2.05-2.68l0.02-9.89C87.15,365.83,88.09,364.63,89.23,364.63z"/>
		<path class="st10" d="M103.47,364.68l7.42,0.03c1.13,0,2.05,1.22,2.05,2.7l-0.02,9.89c-0.01,1.46-0.93,2.67-2.08,2.67l-7.41-0.03
			c-1.13-0.01-2.07-1.22-2.05-2.68l0.01-9.89C101.41,365.89,102.33,364.68,103.47,364.68z"/>
		<path class="st10" d="M117.71,364.73l7.42,0.03c1.13,0,2.07,1.21,2.05,2.68l-0.02,9.89c0,1.48-0.94,2.67-2.07,2.67l-7.41-0.03
			c-1.13,0-2.07-1.21-2.05-2.68l0.02-9.9C115.65,365.93,116.57,364.73,117.71,364.73z"/>
		<path class="st10" d="M131.95,364.79l7.41,0.03c1.13,0.01,2.07,1.21,2.05,2.68l-0.02,9.9c0,1.46-0.93,2.67-2.07,2.67l-7.42-0.03
			c-1.13,0-2.05-1.21-2.05-2.68l0.02-9.89C129.88,365.98,130.82,364.77,131.95,364.79z"/>
		<path class="st10" d="M146.19,364.84l7.41,0.01c1.13,0.01,2.07,1.22,2.07,2.7l-0.02,9.9c0,1.46-0.93,2.67-2.08,2.67l-7.41-0.03
			c-1.13-0.01-2.07-1.22-2.05-2.68l0.02-9.89C144.13,366.04,145.05,364.84,146.19,364.84z"/>
		<path class="st10" d="M160.43,364.88l7.42,0.03c1.13,0,2.07,1.22,2.04,2.68l-0.02,9.9c0,1.48-0.93,2.67-2.08,2.67l-7.41-0.03
			c-1.13,0-2.05-1.21-2.05-2.68l0.02-9.89C158.37,366.09,159.3,364.88,160.43,364.88z"/>
		<path class="st10" d="M174.67,364.94l7.42,0.03c1.14,0.01,2.05,1.22,2.05,2.7l-0.02,9.89c0,1.48-0.92,2.67-2.07,2.67l-7.42-0.04
			c-1.13,0-2.07-1.21-2.05-2.68l0.02-9.89C172.61,366.14,173.54,364.94,174.67,364.94z"/>
		<path class="st10" d="M188.91,364.99l7.42,0.03c1.13,0.01,2.05,1.22,2.07,2.68l-0.02,9.89c-0.01,1.46-0.93,2.67-2.08,2.67
			l-7.42-0.03c-1.13,0-2.07-1.21-2.05-2.67l0.02-9.9C186.85,366.18,187.79,364.99,188.91,364.99z"/>
		<path class="st10" d="M203.16,365.04l7.42,0.01c1.13,0.01,2.05,1.22,2.05,2.68l-0.02,9.89c0,1.49-0.93,2.67-2.07,2.68l-7.42-0.03
			c-1.13,0-2.05-1.21-2.05-2.67l0.02-9.9C201.1,366.25,202.02,365.04,203.16,365.04z"/>
		<path class="st10" d="M217.44,365.1l13.42,0.04c1.15,0.01,2.1,1.23,2.09,2.74l-0.02,9.81c-0.01,1.49-0.95,2.71-2.11,2.71
			l-13.41-0.05c-1.15,0-2.1-1.23-2.09-2.74l0.02-9.79C215.34,366.3,216.28,365.08,217.44,365.1z"/>
		<path class="st10" d="M238.4,365.16l7.06,0.03c1.08,0,1.96,1.15,1.96,2.55l-0.02,10.16c0,1.41-0.89,2.55-1.97,2.54l-7.06-0.01
			c-1.08-0.01-1.97-1.17-1.96-2.56l0.02-10.16C236.44,366.3,237.32,365.16,238.4,365.16z"/>
		<path class="st10" d="M198.7,445.3c0,4.8-3,8.71-6.71,8.71h-55.95c-3.7,0-6.71-3.89-6.71-8.71v-43.41c0-4.8,3-8.71,6.71-8.71
			h55.95c3.7,0,6.71,3.89,6.71,8.71V445.3z"/>
		<g>
			<path class="st11" d="M199.91,412.48V401.6c0-4.8-3-8.71-6.71-8.71h-56.48c-3.7,0-6.71,3.9-6.71,8.71v10.88H199.91z"/>
			<path class="st9" d="M164.7,392.88h-27.97c-3.7,0-6.71,3.9-6.71,8.71v10.88h34.68V392.88z"/>
		</g>
		<rect x="28.12" y="235" class="st11" width="273.68" height="24.34"/>
	</g>
	<g>
		<g>
			<path class="st12" d="M140.26,442.72l-0.34-0.19c-3.39-1.91-7.33,0.12-8.8,4.52l-7.11,21.26c-0.08,0.07-0.17,0.13-0.25,0.2
				c0-0.04,0.01-0.08,0.02-0.13l4.97-50.46c0.47-4.76-2.12-9.11-5.79-9.71l-0.36-0.07c-3.67-0.6-7.02,2.75-7.5,7.51l-2.07,26.98
				c-0.26-0.07-0.97-0.04-0.97-0.04l-1.33-36.8c-0.15-4.79-3.27-8.52-6.95-8.33l-0.37,0.03c-3.69,0.2-6.56,4.24-6.41,9.03
				l2.02,37.14l-1.5,0.09l-4.5-36.4c-0.6-4.75-4.04-7.94-7.67-7.18l-0.37,0.08c-3.64,0.76-6.12,5.23-5.52,9.95l5.21,36.67
				c0,0-1.36,0.24-1.71,0.6l-2.86-16.15c-0.64-3.6-3.41-5.85-6.18-5.02l-0.2,0.05c-2.78,0.83-4.51,4.41-3.87,8.02
				c0,0,5.99,34.31,7.02,45.78c1.03,11.47,10.46,24.3,20.86,22.73l19.63-2.98c18.23-2.78,26.41-45.28,26.41-45.28
				C145.25,450.26,143.65,444.63,140.26,442.72z"/>
			<polygon class="st13" points="125.75,600 125.6,496.39 82.2,496.39 82.12,600 			"/>
		</g>
		<g>
			<path class="st12" d="M172.78,450.02l0.34-0.19c3.39-1.91,7.33,0.12,8.8,4.52l7.11,21.26c0.08,0.07,0.17,0.13,0.25,0.2
				c0-0.04-0.01-0.08-0.02-0.13l-4.97-50.46c-0.47-4.76,2.12-9.11,5.79-9.71l0.36-0.07c3.67-0.6,7.02,2.75,7.5,7.51l2.07,26.98
				c0.26-0.07,0.97-0.04,0.97-0.04l1.33-36.8c0.15-4.79,3.27-8.52,6.95-8.33l0.37,0.03c3.69,0.2,6.56,4.24,6.41,9.03L214,450.96
				l1.5,0.09l4.5-36.4c0.6-4.75,4.04-7.94,7.67-7.18l0.37,0.08c3.64,0.76,6.12,5.23,5.53,9.95l-5.21,36.67c0,0,1.36,0.24,1.71,0.6
				l2.86-16.15c0.64-3.6,3.41-5.85,6.17-5.02l0.2,0.05c2.78,0.83,4.51,4.41,3.87,8.02c0,0-5.99,34.31-7.02,45.78
				c-1.03,11.47-10.46,24.3-20.86,22.73l-19.63-2.98c-18.23-2.78-26.41-45.28-26.41-45.28C167.79,457.56,169.4,451.94,172.78,450.02
				z"/>
			<polygon class="st13" points="230.91,600 230.84,503.69 187.45,503.69 187.34,600 			"/>
		</g>
	</g>
</g>
<g>
	<g>
		<path class="st9" d="M1257.53,345.53l-240.58,1.01c-3.09,0.01-5.62-3.22-5.63-7.18l-0.51-200.35c-0.01-3.97,2.51-7.21,5.6-7.22
			l240.58-1.02c3.08-0.01,5.62,3.22,5.63,7.18l0.5,200.34C1263.14,342.26,1260.62,345.53,1257.53,345.53z"/>
		<path class="st10" d="M1037.14,317.04l-7.77-0.03c-0.88,0-1.6-0.94-1.6-2.07l0.02-7.42c0.01-1.14,0.72-2.06,1.61-2.06l7.77,0.03
			c0.88,0,1.6,0.93,1.6,2.06l-0.02,7.42C1038.74,316.12,1038.01,317.05,1037.14,317.04z"/>
		<path class="st10" d="M1036.8,302.91l-7.06-0.03c-1.07,0-1.96-1.14-1.95-2.52l0.02-10.04c0.01-1.38,0.89-2.51,1.96-2.51l7.07,0.03
			c1.07,0,1.95,1.14,1.95,2.52l-0.02,10.04C1038.76,301.78,1037.88,302.91,1036.8,302.91z"/>
		<path class="st10" d="M1036.84,285.21l-7.06-0.01c-1.09,0-1.96-1.14-1.96-2.53l0.02-10.03c0-1.39,0.89-2.52,1.96-2.51l7.06,0.03
			c1.08,0,1.96,1.14,1.95,2.52l-0.02,10.04C1038.82,284.09,1037.92,285.22,1036.84,285.21z"/>
		<path class="st10" d="M1036.89,267.53l-7.06-0.03c-1.08,0-1.96-1.14-1.96-2.52l0.02-10.04c0.01-1.39,0.89-2.51,1.97-2.51
			l7.06,0.03c1.07,0.01,1.96,1.14,1.96,2.53l-0.02,10.03C1038.85,266.42,1037.97,267.53,1036.89,267.53z"/>
		<path class="st10" d="M1036.92,249.86l-7.06-0.03c-1.08,0-1.96-1.14-1.95-2.52l0.02-10.03c0-1.39,0.89-2.52,1.96-2.52l7.06,0.03
			c1.08,0.01,1.96,1.14,1.96,2.52l-0.02,10.04C1038.88,248.72,1038,249.84,1036.92,249.86z"/>
		<path class="st10" d="M1036.96,232.16l-7.06-0.03c-1.08,0-1.96-1.14-1.96-2.52l0.02-10.04c0.01-1.38,0.89-2.51,1.97-2.51
			l7.06,0.03c1.08,0,1.96,1.14,1.96,2.52l-0.02,10.04C1038.93,231.04,1038.04,232.16,1036.96,232.16z"/>
		<path class="st10" d="M1050.86,317.09l-7.77-0.03c-0.88,0-1.6-0.94-1.59-2.06l0.01-7.42c0.01-1.14,0.73-2.06,1.61-2.06l7.77,0.03
			c0.88,0,1.6,0.93,1.59,2.06l-0.02,7.42C1052.47,316.16,1051.74,317.09,1050.86,317.09z"/>
		<path class="st10" d="M1063.07,303l-19.47-0.07c-1.16,0-2.09-1.22-2.09-2.69l0.02-9.69c0-1.49,0.94-2.69,2.1-2.69l19.47,0.07
			c1.15,0.01,2.1,1.22,2.1,2.71l-0.02,9.69C1065.17,301.79,1064.23,303,1063.07,303z"/>
		<path class="st10" d="M1054.17,285.29l-10.53-0.05c-1.15,0-2.09-1.22-2.1-2.69l0.02-9.69c0.01-1.47,0.95-2.69,2.11-2.68
			l10.53,0.03c1.15,0.01,2.1,1.22,2.09,2.69l-0.02,9.7C1056.27,284.08,1055.32,285.27,1054.17,285.29z"/>
		<path class="st10" d="M1064.69,267.63l-21.01-0.08c-1.15,0-2.1-1.22-2.1-2.71l0.02-9.69c0-1.49,0.95-2.69,2.11-2.69l21.01,0.07
			c1.15,0.01,2.1,1.23,2.09,2.71l-0.01,9.69C1066.8,266.43,1065.85,267.64,1064.69,267.63z"/>
		<path class="st10" d="M1050.65,249.9l-7.07-0.03c-1.07,0-1.95-1.15-1.95-2.53l0.02-10.04c0.01-1.38,0.89-2.49,1.97-2.51l7.06,0.03
			c1.08,0,1.96,1.14,1.95,2.52l-0.02,10.04C1052.61,248.77,1051.72,249.9,1050.65,249.9z"/>
		<path class="st10" d="M1050.68,232.21l-7.05-0.03c-1.09,0-1.97-1.14-1.96-2.52l0.02-10.04c0.01-1.38,0.89-2.51,1.97-2.51
			l7.06,0.03c1.08,0,1.96,1.14,1.96,2.52l-0.02,10.04C1052.64,231.08,1051.76,232.21,1050.68,232.21z"/>
		<path class="st10" d="M1063.54,317.15l-6.72-0.03c-0.88,0-1.6-0.93-1.6-2.07l0.02-7.42c0.01-1.14,0.72-2.06,1.61-2.06l6.72,0.03
			c0.88,0,1.61,0.94,1.59,2.07l-0.01,7.42C1065.15,316.22,1064.42,317.15,1063.54,317.15z"/>
		<path class="st10" d="M1076.42,317.19l-6.72-0.01c-0.89-0.01-1.61-0.94-1.6-2.08l0.02-7.4c0-1.14,0.72-2.07,1.6-2.07l6.72,0.03
			c0.88,0,1.6,0.93,1.59,2.07l-0.01,7.42C1078.03,316.27,1077.3,317.19,1076.42,317.19z"/>
		<path class="st10" d="M1089.3,317.24l-6.72-0.03c-0.88-0.01-1.59-0.93-1.59-2.07l0.02-7.42c0-1.13,0.72-2.06,1.61-2.06l6.72,0.03
			c0.89,0,1.6,0.93,1.59,2.07l-0.01,7.4C1090.91,316.31,1090.2,317.24,1089.3,317.24z"/>
		<path class="st10" d="M1102.19,317.28l-6.73-0.01c-0.88-0.01-1.6-0.94-1.6-2.07l0.02-7.4c0-1.14,0.72-2.07,1.6-2.07l6.72,0.03
			c0.89,0,1.6,0.94,1.6,2.07l-0.01,7.4C1103.79,316.36,1103.07,317.28,1102.19,317.28z"/>
		<path class="st10" d="M1115.06,317.33l-6.71-0.03c-0.88-0.01-1.6-0.94-1.6-2.07l0.02-7.42c0.01-1.14,0.73-2.07,1.61-2.06
			l6.72,0.03c0.88,0.01,1.6,0.94,1.6,2.07l-0.02,7.42C1116.68,316.4,1115.96,317.33,1115.06,317.33z"/>
		<path class="st10" d="M1127.96,317.37l-6.72-0.01c-0.88,0-1.6-0.94-1.6-2.07l0.01-7.42c0.01-1.13,0.73-2.04,1.61-2.06l6.72,0.03
			c0.88,0,1.6,0.94,1.6,2.07l-0.01,7.42C1129.56,316.46,1128.84,317.37,1127.96,317.37z"/>
		<path class="st10" d="M1140.84,317.41l-6.73-0.01c-0.88-0.01-1.6-0.93-1.6-2.07l0.02-7.42c0-1.14,0.72-2.06,1.61-2.06l6.72,0.03
			c0.88,0,1.6,0.93,1.6,2.07l-0.01,7.42C1142.46,316.5,1141.72,317.42,1140.84,317.41z"/>
		<path class="st10" d="M1153.73,317.45l-6.72-0.01c-0.89-0.01-1.6-0.93-1.6-2.07l0.02-7.42c0-1.13,0.72-2.06,1.6-2.04l6.72,0.03
			c0.88,0,1.6,0.93,1.59,2.07l-0.02,7.42C1155.33,316.55,1154.61,317.46,1153.73,317.45z"/>
		<path class="st10" d="M1166.61,317.5l-6.73-0.01c-0.88,0-1.6-0.93-1.59-2.07l0.02-7.4c0-1.14,0.72-2.06,1.6-2.06l6.72,0.03
			c0.89,0,1.6,0.93,1.6,2.06l-0.01,7.42C1168.22,316.59,1167.49,317.5,1166.61,317.5z"/>
		<path class="st10" d="M1179.5,317.54l-6.72-0.01c-0.88-0.01-1.6-0.93-1.59-2.07l0.01-7.42c0.01-1.13,0.72-2.06,1.61-2.06
			l6.73,0.03c0.88,0.01,1.59,0.94,1.59,2.07l-0.01,7.4C1181.1,316.63,1180.38,317.56,1179.5,317.54z"/>
		<path class="st10" d="M1192.38,317.6l-6.72-0.01c-0.89,0-1.6-0.93-1.6-2.07l0.01-7.42c0-1.13,0.72-2.06,1.61-2.04l6.73,0.03
			c0.88,0,1.6,0.93,1.59,2.06l-0.01,7.42C1194,316.67,1193.26,317.61,1192.38,317.6z"/>
		<path class="st10" d="M1205.27,317.65l-6.73-0.03c-0.88-0.01-1.6-0.94-1.59-2.07l0.01-7.42c0-1.14,0.72-2.07,1.6-2.06l6.73,0.03
			c0.88,0.01,1.6,0.94,1.59,2.07l-0.01,7.42C1206.87,316.72,1206.15,317.65,1205.27,317.65z"/>
		<path class="st10" d="M1218.15,317.69l-6.72-0.03c-0.88,0-1.6-0.94-1.6-2.07l0.01-7.42c0-1.13,0.73-2.04,1.61-2.04l6.72,0.01
			c0.88,0,1.59,0.94,1.6,2.07l-0.02,7.42C1219.76,316.76,1219.03,317.69,1218.15,317.69z"/>
		<path class="st10" d="M1231.04,317.74l-6.72-0.03c-0.88-0.01-1.6-0.93-1.59-2.07l0.02-7.42c0-1.13,0.72-2.06,1.6-2.06l6.72,0.03
			c0.88,0.01,1.6,0.93,1.6,2.07l-0.02,7.42C1232.65,316.81,1231.92,317.74,1231.04,317.74z"/>
		<path class="st10" d="M1245.5,317.78l-7.77-0.03c-0.88-0.01-1.6-0.93-1.6-2.07l0.02-7.42c0-1.14,0.72-2.07,1.6-2.06l7.77,0.03
			c0.88,0,1.6,0.93,1.6,2.07l-0.02,7.4C1247.12,316.87,1246.4,317.8,1245.5,317.78z"/>
		<path class="st10" d="M1076.98,303.05l-6.92-0.03c-1.06,0-1.92-1.11-1.92-2.48l0.02-10.14c0-1.35,0.87-2.47,1.93-2.47l6.93,0.03
			c1.06,0.01,1.92,1.13,1.92,2.48l-0.02,10.14C1078.91,301.94,1078.04,303.05,1076.98,303.05z"/>
		<path class="st10" d="M1090.95,303.09l-6.93-0.03c-1.05,0-1.92-1.13-1.92-2.48l0.02-10.12c0-1.37,0.87-2.47,1.93-2.47l6.93,0.03
			c1.06,0,1.92,1.13,1.92,2.48l-0.02,10.14C1092.89,301.99,1092.01,303.11,1090.95,303.09z"/>
		<path class="st10" d="M1104.94,303.15l-6.93-0.01c-1.06-0.01-1.93-1.13-1.92-2.48l0.02-10.14c0-1.37,0.87-2.47,1.93-2.47
			l6.92,0.03c1.06,0,1.92,1.11,1.92,2.48l-0.02,10.14C1106.86,302.05,1106,303.15,1104.94,303.15z"/>
		<path class="st10" d="M1118.91,303.2l-6.93-0.03c-1.05,0-1.92-1.11-1.92-2.48l0.03-10.14c0-1.35,0.87-2.45,1.93-2.45l6.93,0.03
			c1.05,0,1.92,1.13,1.92,2.48l-0.02,10.12C1120.84,302.09,1119.96,303.2,1118.91,303.2z"/>
		<path class="st10" d="M1132.9,303.24l-6.93-0.03c-1.06,0-1.92-1.11-1.92-2.47l0.02-10.14c0.01-1.37,0.87-2.47,1.93-2.48l6.93,0.03
			c1.06,0,1.92,1.11,1.92,2.48l-0.02,10.14C1134.82,302.14,1133.96,303.25,1132.9,303.24z"/>
		<path class="st10" d="M1146.77,302.88l-6.93-0.03c-1.06,0-1.92-1.13-1.92-2.47l0.02-10.14c0-1.37,0.87-2.47,1.93-2.48l6.93,0.03
			c1.05,0,1.92,1.11,1.92,2.48l-0.02,10.14C1148.7,301.78,1147.83,302.89,1146.77,302.88z"/>
		<path class="st10" d="M1160.85,303.35l-6.93-0.03c-1.06-0.01-1.93-1.13-1.92-2.48l0.02-10.14c0.01-1.35,0.87-2.47,1.93-2.47
			l6.92,0.01c1.06,0.01,1.92,1.13,1.93,2.48l-0.02,10.14C1162.78,302.24,1161.91,303.35,1160.85,303.35z"/>
		<path class="st10" d="M1174.83,303.4l-6.93-0.03c-1.06,0-1.92-1.13-1.92-2.48l0.02-10.14c0-1.35,0.87-2.47,1.93-2.45l6.93,0.01
			c1.06,0.01,1.92,1.13,1.92,2.48l-0.02,10.14C1176.76,302.3,1175.89,303.4,1174.83,303.4z"/>
		<path class="st10" d="M1188.81,303.45l-6.92-0.03c-1.06,0-1.92-1.11-1.92-2.47l0.02-10.14c0-1.35,0.87-2.47,1.93-2.47l6.92,0.01
			c1.06,0.01,1.92,1.13,1.92,2.48l-0.02,10.14C1190.74,302.34,1189.87,303.45,1188.81,303.45z"/>
		<path class="st10" d="M1202.79,303.49l-6.93-0.03c-1.06,0-1.92-1.11-1.92-2.47l0.02-10.14c0.01-1.37,0.87-2.47,1.93-2.47
			l6.93,0.03c1.06,0.01,1.92,1.13,1.92,2.48l-0.02,10.12C1204.71,302.39,1203.85,303.49,1202.79,303.49z"/>
		<path class="st10" d="M1216.77,303.53l-6.93-0.03c-1.06,0-1.92-1.11-1.92-2.47l0.02-10.14c0-1.37,0.87-2.47,1.93-2.47l6.93,0.03
			c1.07,0,1.93,1.11,1.92,2.48l-0.02,10.14C1218.7,302.44,1217.83,303.56,1216.77,303.53z"/>
		<path class="st10" d="M1230.75,303.6l-6.93-0.03c-1.06,0-1.93-1.13-1.92-2.48l0.02-10.12c0.01-1.37,0.87-2.48,1.93-2.47l6.93,0.03
			c1.06,0,1.92,1.11,1.92,2.47l-0.02,10.14C1232.67,302.48,1231.81,303.6,1230.75,303.6z"/>
		<path class="st10" d="M1245.18,303.64l-7.06-0.03c-1.07,0-1.96-1.14-1.95-2.52l0.02-10.04c0-1.38,0.89-2.52,1.97-2.51l7.06,0.01
			c1.08,0.01,1.96,1.14,1.95,2.53l-0.02,10.04C1247.15,302.51,1246.26,303.64,1245.18,303.64z"/>
		<path class="st10" d="M1245.09,285.96l-12.85-0.05c-1.15,0-2.1-1.23-2.1-2.69l0.02-9.7c0.01-1.47,0.96-2.69,2.11-2.68l12.85,0.07
			c1.15,0,2.1,1.22,2.1,2.71l-0.02,9.69C1247.19,284.76,1246.24,285.95,1245.09,285.96z"/>
		<path class="st10" d="M1245.13,268.28l-17.27-0.07c-1.15-0.01-2.1-1.22-2.09-2.71l0.01-9.69c0.01-1.49,0.95-2.68,2.11-2.68
			l17.27,0.05c1.15,0.01,2.09,1.21,2.09,2.69l-0.02,9.7C1247.22,267.07,1246.28,268.28,1245.13,268.28z"/>
		<path class="st10" d="M1245.16,250.57l-23.09-0.09c-1.15,0.01-2.1-1.22-2.1-2.69l0.02-9.7c0.01-1.47,0.95-2.69,2.11-2.68
			l23.09,0.09c1.15,0,2.09,1.22,2.1,2.71l-0.02,9.67C1247.27,249.38,1246.31,250.59,1245.16,250.57z"/>
		<path class="st10" d="M1245.2,232.9l-10.27-0.03c-1.15,0-2.1-1.22-2.09-2.69l0.02-9.7c0-1.49,0.95-2.69,2.11-2.69l10.27,0.04
			c1.15,0,2.1,1.21,2.09,2.69l-0.02,9.7C1247.3,231.69,1246.35,232.9,1245.2,232.9z"/>
		<path class="st10" d="M1224.66,285.88l-7.41-0.03c-1.14,0-2.07-1.19-2.07-2.64l0.02-9.79c0.01-1.46,0.93-2.65,2.08-2.64l7.41,0.03
			c1.13,0.01,2.05,1.21,2.05,2.65l-0.02,9.79C1226.73,284.7,1225.8,285.88,1224.66,285.88z"/>
		<path class="st10" d="M1210.42,285.83l-7.41-0.03c-1.13,0-2.05-1.21-2.05-2.65l0.02-9.78c0-1.46,0.93-2.64,2.07-2.65l7.41,0.04
			c1.14,0,2.07,1.19,2.05,2.65l-0.01,9.78C1212.48,284.65,1211.55,285.84,1210.42,285.83z"/>
		<path class="st10" d="M1196.18,285.78l-7.42-0.03c-1.13,0-2.05-1.19-2.05-2.65l0.02-9.78c0-1.46,0.92-2.65,2.05-2.65l7.42,0.03
			c1.13,0,2.07,1.21,2.05,2.65l-0.02,9.79C1198.24,284.6,1197.31,285.79,1196.18,285.78z"/>
		<path class="st10" d="M1181.93,285.74l-7.41-0.03c-1.13,0-2.07-1.19-2.05-2.65l0.01-9.79c0.01-1.46,0.94-2.64,2.08-2.64l7.41,0.03
			c1.13,0,2.07,1.21,2.07,2.65l-0.02,9.79C1184,284.54,1183.06,285.74,1181.93,285.74z"/>
		<path class="st10" d="M1167.69,285.68l-7.42-0.03c-1.13-0.01-2.05-1.21-2.05-2.65l0.02-9.79c0-1.46,0.93-2.64,2.07-2.64l7.42,0.03
			c1.13,0,2.05,1.19,2.04,2.65l-0.02,9.79C1169.75,284.5,1168.83,285.68,1167.69,285.68z"/>
		<path class="st10" d="M1153.46,285.63l-7.42-0.03c-1.13,0-2.05-1.19-2.05-2.65l0.02-9.78c0.01-1.46,0.93-2.64,2.08-2.64l7.41,0.03
			c1.13,0,2.07,1.19,2.05,2.65l-0.03,9.78C1155.52,284.44,1154.59,285.63,1153.46,285.63z"/>
		<path class="st10" d="M1139.21,285.58l-7.41-0.03c-1.14-0.01-2.07-1.21-2.05-2.65l0.02-9.78c0-1.46,0.93-2.64,2.07-2.63l7.42,0.03
			c1.13,0,2.05,1.19,2.05,2.65l-0.02,9.79C1141.27,284.4,1140.34,285.58,1139.21,285.58z"/>
		<path class="st10" d="M1124.97,285.54l-7.42-0.03c-1.13,0-2.05-1.19-2.05-2.65l0.02-9.79c0-1.45,0.93-2.64,2.07-2.64l7.42,0.03
			c1.14,0,2.07,1.21,2.07,2.65l-0.03,9.78C1127.03,284.34,1126.1,285.54,1124.97,285.54z"/>
		<path class="st10" d="M1110.72,285.49l-7.42-0.03c-1.13,0-2.05-1.19-2.05-2.65l0.01-9.79c0.01-1.46,0.93-2.64,2.07-2.64l7.42,0.01
			c1.14,0.01,2.05,1.21,2.05,2.65l-0.02,9.79C1112.79,284.29,1111.86,285.49,1110.72,285.49z"/>
		<path class="st10" d="M1096.49,285.43l-7.42-0.03c-1.13,0-2.07-1.21-2.05-2.65l0.02-9.78c0.01-1.46,0.94-2.64,2.07-2.64l7.41,0.03
			c1.13,0,2.07,1.19,2.07,2.65l-0.02,9.78C1098.55,284.24,1097.61,285.43,1096.49,285.43z"/>
		<path class="st10" d="M1082.24,285.38l-7.41-0.03c-1.13,0-2.05-1.19-2.07-2.65l0.03-9.78c0-1.46,0.93-2.64,2.07-2.64l7.42,0.03
			c1.13,0.01,2.05,1.19,2.05,2.65l-0.02,9.79C1084.29,284.2,1083.38,285.38,1082.24,285.38z"/>
		<path class="st10" d="M1068,285.33l-7.41-0.03c-1.13,0-2.05-1.19-2.05-2.65l0.02-9.79c0-1.45,0.93-2.64,2.07-2.63l7.41,0.03
			c1.13,0,2.07,1.21,2.05,2.65l-0.02,9.79C1070.07,284.15,1069.13,285.33,1068,285.33z"/>
		<path class="st10" d="M1220.74,268.18l-7.42-0.03c-1.13,0-2.05-1.19-2.05-2.65l0.02-9.79c0.01-1.45,0.93-2.64,2.07-2.64l7.42,0.03
			c1.13,0,2.05,1.19,2.05,2.65l-0.02,9.78C1222.81,267,1221.87,268.18,1220.74,268.18z"/>
		<path class="st10" d="M1206.49,268.13l-7.41-0.03c-1.13,0-2.05-1.19-2.05-2.65l0.02-9.79c0-1.45,0.94-2.64,2.07-2.64l7.41,0.03
			c1.13,0,2.07,1.19,2.05,2.64l-0.02,9.79C1208.56,266.95,1207.63,268.14,1206.49,268.13z"/>
		<path class="st10" d="M1192.25,268.09l-7.41-0.03c-1.13,0-2.05-1.21-2.05-2.67l0.02-9.78c0-1.47,0.93-2.65,2.05-2.64l7.42,0.03
			c1.13,0,2.05,1.19,2.05,2.65l-0.02,9.78C1194.32,266.9,1193.39,268.09,1192.25,268.09z"/>
		<path class="st10" d="M1178,268.04l-7.41-0.03c-1.13,0-2.07-1.21-2.05-2.65l0.02-9.78c0.01-1.46,0.93-2.65,2.07-2.64l7.41,0.03
			c1.13,0.01,2.07,1.21,2.07,2.65l-0.02,9.77C1180.07,266.84,1179.14,268.04,1178,268.04z"/>
		<path class="st10" d="M1163.76,267.98l-7.41-0.03c-1.13-0.01-2.07-1.21-2.05-2.65l0.02-9.78c0-1.45,0.93-2.64,2.07-2.64l7.41,0.03
			c1.13,0,2.05,1.21,2.05,2.65l-0.02,9.79C1165.83,266.79,1164.9,267.98,1163.76,267.98z"/>
		<path class="st10" d="M1149.53,267.94l-7.42-0.03c-1.13-0.01-2.05-1.21-2.05-2.65l0.02-9.78c0-1.46,0.93-2.64,2.07-2.64l7.42,0.03
			c1.13,0,2.05,1.19,2.05,2.65l-0.02,9.78C1151.59,266.74,1150.66,267.93,1149.53,267.94z"/>
		<path class="st10" d="M1135.29,267.89l-7.42-0.03c-1.13,0-2.07-1.21-2.05-2.65l0.02-9.79c0.01-1.45,0.93-2.64,2.08-2.64l7.41,0.03
			c1.13,0.01,2.05,1.19,2.05,2.65l-0.02,9.78C1137.34,266.7,1136.42,267.88,1135.29,267.89z"/>
		<path class="st10" d="M1121.04,267.84l-7.41-0.03c-1.13-0.01-2.07-1.21-2.07-2.65l0.02-9.79c0-1.45,0.93-2.64,2.07-2.64l7.41,0.03
			c1.13,0,2.07,1.19,2.05,2.65l-0.02,9.78C1123.11,266.64,1122.18,267.84,1121.04,267.84z"/>
		<path class="st10" d="M1106.8,267.78l-7.42-0.03c-1.13,0-2.07-1.19-2.05-2.65l0.02-9.79c0-1.45,0.93-2.64,2.07-2.64l7.41,0.01
			c1.13,0,2.05,1.19,2.05,2.65l-0.02,9.79C1108.87,266.59,1107.94,267.78,1106.8,267.78z"/>
		<path class="st10" d="M1092.56,267.73l-7.42-0.03c-1.13-0.01-2.05-1.19-2.05-2.65l0.02-9.78c0-1.46,0.93-2.65,2.07-2.65l7.41,0.04
			c1.13,0,2.07,1.19,2.05,2.65l-0.02,9.78C1094.62,266.54,1093.69,267.74,1092.56,267.73z"/>
		<path class="st10" d="M1078.32,267.68l-7.41-0.03c-1.13,0-2.07-1.21-2.05-2.65l0.02-9.78c0-1.46,0.93-2.65,2.07-2.64l7.42,0.01
			c1.13,0,2.07,1.19,2.05,2.65l-0.02,9.79C1080.38,266.5,1079.45,267.69,1078.32,267.68z"/>
		<path class="st10" d="M1213.32,250.47l-7.42-0.01c-1.12-0.01-2.05-1.21-2.04-2.67l0.01-9.78c0.01-1.46,0.94-2.64,2.08-2.64
			l7.41,0.03c1.14,0,2.07,1.19,2.05,2.67l-0.02,9.78C1215.38,249.29,1214.45,250.48,1213.32,250.47z"/>
		<path class="st10" d="M1199.08,250.43l-7.41-0.03c-1.13,0-2.07-1.19-2.05-2.64l0.02-9.79c0-1.45,0.93-2.64,2.07-2.64l7.41,0.03
			c1.13,0.01,2.07,1.21,2.05,2.65l-0.02,9.78C1201.15,249.23,1200.2,250.43,1199.08,250.43z"/>
		<path class="st10" d="M1184.83,250.38l-7.42-0.03c-1.13,0-2.07-1.21-2.05-2.65l0.02-9.79c0.01-1.46,0.93-2.64,2.07-2.64l7.41,0.03
			c1.13,0.01,2.05,1.21,2.05,2.65l-0.02,9.78C1186.9,249.18,1185.97,250.38,1184.83,250.38z"/>
		<path class="st10" d="M1170.6,250.32l-7.41-0.04c-1.13,0-2.05-1.19-2.07-2.65l0.02-9.79c0-1.45,0.93-2.64,2.07-2.64l7.41,0.03
			c1.13,0,2.07,1.21,2.07,2.65l-0.02,9.79C1172.66,249.14,1171.73,250.32,1170.6,250.32z"/>
		<path class="st10" d="M1156.35,250.27l-7.42-0.03c-1.13-0.01-2.05-1.19-2.05-2.67l0.02-9.78c-0.01-1.46,0.93-2.64,2.07-2.64
			l7.42,0.03c1.13,0,2.07,1.19,2.05,2.65l-0.02,9.78C1158.42,249.1,1157.48,250.28,1156.35,250.27z"/>
		<path class="st10" d="M1142.11,250.22l-7.42-0.03c-1.13,0-2.07-1.19-2.05-2.65l0.02-9.78c0-1.46,0.93-2.64,2.07-2.64l7.41,0.03
			c1.13,0.01,2.07,1.19,2.05,2.65l-0.01,9.79C1144.18,249.04,1143.25,250.22,1142.11,250.22z"/>
		<path class="st10" d="M1127.87,250.16l-7.41-0.01c-1.13-0.01-2.05-1.21-2.05-2.67l0.02-9.78c0-1.46,0.93-2.64,2.07-2.64l7.41,0.03
			c1.13,0,2.07,1.19,2.05,2.65l-0.01,9.78C1129.93,248.98,1129,250.16,1127.87,250.16z"/>
		<path class="st10" d="M1113.63,250.12l-7.42-0.03c-1.13-0.01-2.07-1.19-2.05-2.65l0.02-9.79c0.01-1.46,0.93-2.64,2.08-2.64
			l7.42,0.04c1.13,0,2.07,1.19,2.05,2.65l-0.02,9.79C1115.69,248.93,1114.76,250.12,1113.63,250.12z"/>
		<path class="st10" d="M1099.38,250.07l-7.41-0.03c-1.13,0-2.05-1.19-2.05-2.65l0.02-9.78c0-1.46,0.93-2.65,2.05-2.64l7.42,0.03
			c1.13,0.01,2.05,1.19,2.05,2.65l-0.02,9.78C1101.45,248.89,1100.51,250.07,1099.38,250.07z"/>
		<path class="st10" d="M1085.14,250.02l-7.42-0.03c-1.14,0-2.05-1.19-2.05-2.65l0.02-9.79c0-1.45,0.93-2.64,2.07-2.64l7.41,0.04
			c1.14,0,2.07,1.21,2.07,2.65l-0.02,9.78C1087.21,248.84,1086.28,250.02,1085.14,250.02z"/>
		<path class="st10" d="M1070.86,249.96l-13.41-0.04c-1.15-0.01-2.11-1.22-2.1-2.71l0.02-9.69c0-1.49,0.95-2.69,2.11-2.69
			l13.41,0.05c1.16,0,2.1,1.21,2.1,2.69l-0.02,9.69C1072.96,248.76,1072.02,249.98,1070.86,249.96z"/>
		<path class="st10" d="M1227.83,232.83l-7.42-0.03c-1.14,0-2.05-1.19-2.07-2.65l0.02-9.78c0-1.46,0.93-2.64,2.07-2.64l7.41,0.03
			c1.13,0,2.07,1.19,2.05,2.65l-0.02,9.78C1229.89,231.65,1228.96,232.83,1227.83,232.83z"/>
		<path class="st10" d="M1213.58,232.79l-7.41-0.03c-1.14,0-2.07-1.19-2.05-2.65l0.02-9.79c0-1.45,0.93-2.64,2.07-2.64l7.41,0.03
			c1.13,0,2.05,1.19,2.05,2.65l-0.02,9.78C1215.66,231.6,1214.72,232.79,1213.58,232.79z"/>
		<path class="st10" d="M1199.34,232.74l-7.42-0.03c-1.13,0-2.05-1.21-2.05-2.67l0.02-9.78c0-1.45,0.93-2.64,2.07-2.64l7.41,0.03
			c1.13,0.01,2.07,1.21,2.05,2.65l-0.01,9.78C1201.4,231.55,1200.48,232.74,1199.34,232.74z"/>
		<path class="st10" d="M1185.11,232.69l-7.42-0.03c-1.13,0-2.07-1.19-2.05-2.65l0.02-9.78c0-1.46,0.94-2.64,2.07-2.64l7.41,0.03
			c1.13,0,2.07,1.19,2.05,2.65l-0.02,9.79C1187.17,231.51,1186.24,232.69,1185.11,232.69z"/>
		<path class="st10" d="M1170.86,232.63l-7.41-0.03c-1.13-0.01-2.07-1.19-2.05-2.65l0.02-9.79c0-1.45,0.93-2.64,2.07-2.64l7.42,0.03
			c1.13,0,2.05,1.19,2.05,2.65l-0.02,9.78C1172.93,231.45,1172,232.65,1170.86,232.63z"/>
		<path class="st10" d="M1156.62,232.58l-7.41-0.01c-1.13-0.01-2.07-1.21-2.07-2.67l0.02-9.79c0-1.45,0.93-2.64,2.08-2.64l7.41,0.03
			c1.13,0.01,2.07,1.21,2.05,2.65l-0.02,9.78C1158.69,231.4,1157.75,232.58,1156.62,232.58z"/>
		<path class="st10" d="M1142.38,232.54l-7.42-0.03c-1.13,0-2.07-1.21-2.04-2.65l0.02-9.79c0-1.46,0.93-2.64,2.08-2.64l7.41,0.03
			c1.13,0,2.05,1.19,2.05,2.65l-0.02,9.78C1144.44,231.35,1143.51,232.54,1142.38,232.54z"/>
		<path class="st10" d="M1128.14,232.49l-7.42-0.03c-1.13-0.01-2.05-1.21-2.05-2.67l0.02-9.78c0-1.46,0.92-2.64,2.07-2.64l7.42,0.04
			c1.13,0,2.07,1.19,2.05,2.65l-0.02,9.78C1130.2,231.29,1129.27,232.49,1128.14,232.49z"/>
		<path class="st10" d="M1113.9,232.44l-7.42-0.03c-1.13-0.01-2.05-1.21-2.07-2.65l0.02-9.78c0.01-1.45,0.93-2.64,2.08-2.64
			l7.42,0.03c1.13,0,2.07,1.19,2.05,2.64l-0.02,9.79C1115.96,231.25,1115.02,232.44,1113.9,232.44z"/>
		<path class="st10" d="M1099.65,232.38l-7.42-0.01c-1.13-0.01-2.05-1.21-2.05-2.65l0.02-9.78c0-1.47,0.93-2.64,2.07-2.65l7.42,0.03
			c1.13,0,2.05,1.19,2.05,2.64l-0.02,9.79C1101.72,231.19,1100.79,232.38,1099.65,232.38z"/>
		<path class="st10" d="M1085.37,232.33l-13.42-0.04c-1.15-0.01-2.1-1.22-2.09-2.71l0.02-9.7c0.01-1.47,0.94-2.68,2.11-2.68
			l13.41,0.05c1.15,0,2.1,1.22,2.09,2.71l-0.02,9.69C1087.48,231.14,1086.53,232.34,1085.37,232.33z"/>
		<path class="st10" d="M1064.41,232.26l-7.06-0.03c-1.08,0-1.96-1.14-1.96-2.52l0.02-10.04c0-1.39,0.89-2.52,1.97-2.51l7.06,0.01
			c1.08,0.01,1.97,1.15,1.96,2.53l-0.02,10.04C1066.38,231.14,1065.49,232.26,1064.41,232.26z"/>
		<path class="st10" d="M1169.72,195.96c0,4.75-3,8.61-6.71,8.61h-55.95c-3.7,0-6.71-3.86-6.71-8.61v-42.94c0-4.75,3-8.61,6.71-8.61
			h55.95c3.7,0,6.71,3.86,6.71,8.61V195.96z"/>
		<path class="st11" d="M1101.35,185.46v10.76c0,4.75,3,8.61,6.7,8.61h56.48c3.7,0,6.71-3.86,6.71-8.61v-10.76H1101.35z"/>
		<path class="st9" d="M1136.56,204.85h27.97c3.7,0,6.71-3.86,6.71-8.61v-10.76h-34.68L1136.56,204.85L1136.56,204.85z"/>
		<rect x="997.26" y="336.93" class="st11" width="273.68" height="24.07"/>
	</g>
	<g>
		<g>
			<path class="st12" d="M1160.67,155.55l0.34,0.19c3.39,1.88,7.33-0.12,8.8-4.47l7.11-21.03c0.08-0.07,0.17-0.13,0.25-0.2
				c0,0.04-0.01,0.08-0.02,0.13l-4.97,49.91c-0.47,4.71,2.12,9.01,5.79,9.61l0.36,0.07c3.67,0.6,7.02-2.72,7.5-7.43l2.07-26.68
				c0.26,0.07,0.98,0.04,0.98,0.04l1.33,36.4c0.15,4.74,3.27,8.43,6.95,8.24l0.37-0.03c3.69-0.2,6.56-4.19,6.41-8.93l-2.02-36.73
				l1.5-0.09l4.5,36c0.6,4.7,4.04,7.86,7.67,7.1l0.37-0.08c3.64-0.76,6.12-5.17,5.53-9.85l-5.21-36.26c0,0,1.36-0.24,1.71-0.6
				l2.86,15.98c0.64,3.56,3.41,5.79,6.18,4.96l0.2-0.05c2.78-0.82,4.51-4.37,3.87-7.93c0,0-5.99-33.93-7.02-45.27
				c-1.03-11.35-10.46-24.03-20.86-22.48l-19.63,2.95c-18.23,2.75-26.41,44.78-26.41,44.78
				C1155.68,148.1,1157.28,153.67,1160.67,155.55z"/>
			<polygon class="st13" points="1177.06,0 1177.21,102.48 1220.61,102.48 1220.69,0 			"/>
		</g>
		<g>
			<path class="st12" d="M1128.15,148.34l-0.34,0.19c-3.39,1.88-7.33-0.12-8.8-4.47l-7.11-21.03c-0.08-0.07-0.17-0.13-0.25-0.2
				c0,0.04,0.01,0.08,0.02,0.13l4.97,49.91c0.47,4.71-2.12,9.01-5.79,9.61l-0.36,0.07c-3.67,0.6-7.02-2.72-7.5-7.43l-2.07-26.68
				c-0.26,0.07-0.98,0.04-0.98,0.04l-1.33,36.4c-0.15,4.74-3.27,8.43-6.95,8.24l-0.37-0.03c-3.69-0.2-6.56-4.19-6.41-8.93
				l2.02-36.73l-1.5-0.09l-4.5,36c-0.6,4.7-4.04,7.86-7.67,7.1l-0.37-0.08c-3.64-0.76-6.12-5.17-5.53-9.85l5.21-36.26
				c0,0-1.36-0.24-1.71-0.6l-2.86,15.98c-0.64,3.56-3.41,5.79-6.18,4.96l-0.2-0.05c-2.78-0.82-4.51-4.37-3.87-7.93
				c0,0,5.99-33.93,7.02-45.27c1.03-11.35,10.46-24.03,20.86-22.48l19.63,2.95c18.23,2.75,26.41,44.78,26.41,44.78
				C1133.14,140.88,1131.53,146.44,1128.15,148.34z"/>
			<polygon class="st13" points="1071.91,0 1071.97,95.26 1115.36,95.26 1115.47,0 			"/>
		</g>
	</g>
</g>
<g>
	<g>
		<polygon class="st14" points="898.17,293.37 898.17,355.02 910.74,363.24 910.74,293.37 		"/>
		<path class="st15" d="M904.46,202.95c-6.55,0-11.84,6.54-14.53,15.24c-1.35,4.38-2.86,16.28-4.25,29.97l8.3,16.44l-9.5-3.97
			c-2.04,22.46-3.61,45.06-3.61,45.06l23.58,32.89C904.46,338.58,904.46,228.83,904.46,202.95z"/>
		<path class="st13" d="M904.46,202.95c6.55,0,11.84,6.54,14.53,15.24c1.35,4.38,2.86,16.28,4.25,29.97l-8.3,16.44l9.5-3.97
			c2.04,22.46,3.6,45.06,3.6,45.06l-23.58,32.89C904.46,338.58,904.46,228.83,904.46,202.95z"/>
	</g>
	<g>
		<polygon class="st14" points="392.07,293.37 392.07,355.02 404.64,363.24 404.64,293.37 		"/>
		<path class="st15" d="M398.36,202.95c-6.55,0-11.84,6.54-14.53,15.24c-1.35,4.38-2.86,16.28-4.25,29.97l8.3,16.44l-9.5-3.97
			c-2.04,22.46-3.61,45.06-3.61,45.06l23.58,32.89C398.36,338.58,398.36,228.83,398.36,202.95z"/>
		<path class="st13" d="M398.36,202.95c6.55,0,11.84,6.54,14.53,15.24c1.35,4.38,2.86,16.28,4.25,29.97l-8.3,16.44l9.5-3.97
			c2.04,22.46,3.6,45.06,3.6,45.06l-23.58,32.89C398.36,338.58,398.36,228.83,398.36,202.95z"/>
	</g>
</g>
<g>
	<path class="st14" d="M1147.35,563.55c21.02,0,40.79-9.79,55.65-27.57l-8.49-10.15c-12.6,15.06-29.35,23.37-47.16,23.37
		s-34.57-8.3-47.16-23.37l-8.49,10.15C1106.55,553.75,1126.33,563.55,1147.35,563.55z"/>
	<path class="st14" d="M1187.92,517.95l-8.49-10.15c-8.57,10.25-19.96,15.89-32.08,15.89c-12.12,0-23.51-5.64-32.08-15.89
		l-8.49,10.15c10.84,12.96,25.25,20.09,40.57,20.09S1177.08,530.92,1187.92,517.95z"/>
	<path class="st14" d="M1172.83,499.9l-8.49-10.15c-4.54,5.43-10.58,8.42-16.99,8.42s-12.45-2.98-16.99-8.42l-8.49,10.15
		c6.81,8.14,15.85,12.62,25.48,12.62S1166.02,508.04,1172.83,499.9z"/>
	<path class="st14" d="M1147.35,484.01c3.12,0,6.23-1.43,8.63-4.26c0.08-0.1,0.17-0.19,0.23-0.31l-8.86-10.62l-8.89,10.59
		c0.08,0.11,0.18,0.23,0.26,0.34C1141.12,482.58,1144.22,484.01,1147.35,484.01z"/>
</g>
<polygon class="st11" points="513.63,120.58 483.63,91.18 455.51,120.58 455.51,0 513.63,0 "/>
<g>
	<path class="st14" d="M109.7,63.38l8.49,10.15c12.59-15.06,29.35-23.37,47.16-23.37s34.56,8.3,47.16,23.37L221,63.38
		c-14.86-17.77-34.63-27.57-55.65-27.57S124.55,45.61,109.7,63.38z"/>
	<path class="st14" d="M165.35,61.32c-15.33,0-29.73,7.14-40.57,20.09l8.49,10.15c8.57-10.25,19.96-15.89,32.08-15.89
		s23.51,5.64,32.08,15.89l8.49-10.15C195.08,68.44,180.67,61.32,165.35,61.32z"/>
	<path class="st14" d="M165.35,86.84c-9.63,0-18.67,4.48-25.48,12.62l8.49,10.15c4.54-5.43,10.58-8.42,16.99-8.42
		s12.45,2.98,16.99,8.42l8.49-10.15C184.02,91.32,174.98,86.84,165.35,86.84z"/>
	<path class="st14" d="M156.72,119.62c-0.08,0.11-0.18,0.23-0.26,0.34l8.89,10.59l8.86-10.62c-0.07-0.11-0.15-0.21-0.23-0.31
		c-2.39-2.84-5.5-4.26-8.63-4.26S159.12,116.78,156.72,119.62z"/>
</g>
<polygon class="st11" points="842.63,598.58 784.51,598.58 784.51,478 812.63,507.4 842.63,478 "/>
</svg>
