<?xml version="1.0" encoding="utf-8"?>
<!-- Generator: Adobe Illustrator 23.0.1, SVG Export Plug-In . SVG Version: 6.00 Build 0)  -->
<svg version="1.1" id="Layer_1" xmlns="http://www.w3.org/2000/svg" xmlns:xlink="http://www.w3.org/1999/xlink" x="0px" y="0px"
	 viewBox="0 0 1920 1080" style="enable-background:new 0 0 1920 1080;" xml:space="preserve">
<style type="text/css">
	.st0{fill:#FFFFFF;stroke:#000000;stroke-miterlimit:10;}
	.st1{font-family:'ArialMT';}
	.st2{font-size:98.0739px;}
	.st3{font-size:56.1309px;}
	.st4{fill:none;stroke:#000000;stroke-width:3;stroke-miterlimit:10;}
</style>
<g>
	<rect x="635.05" y="118.28" class="st0" width="712.02" height="183.43"/>
	<text transform="matrix(0.5783 0 0 1 709.0747 237.5488)" class="st1 st2">LOGICAL REASONING</text>
	<g>
		<g>
			<rect x="94.95" y="670.11" class="st0" width="389.53" height="284.46"/>
			<text transform="matrix(0.9056 8.017407e-03 -6.998048e-03 1 184.2517 796.7232)" class="st1 st3">Deductive</text>
			<text transform="matrix(0.9056 8.017407e-03 -6.998048e-03 1 183.7804 864.0712)" class="st1 st3">Reasoning</text>
		</g>
		<g>
			<rect x="767.66" y="670.11" class="st0" width="389.53" height="284.46"/>
			<text transform="matrix(0.9056 8.017407e-03 -6.998048e-03 1 856.9619 796.7198)" class="st1 st3">Inductive</text>
			<text transform="matrix(0.9056 8.017407e-03 -6.998048e-03 1 856.4905 864.0688)" class="st1 st3">Reasoning</text>
		</g>
		<g>
			<rect x="1429.33" y="670.11" class="st0" width="389.53" height="284.46"/>
			<text transform="matrix(0.9056 8.017407e-03 -6.998048e-03 1 1518.5863 796.7151)" class="st1 st3">Abductive</text>
			<text transform="matrix(0.9056 8.017407e-03 -6.998048e-03 1 1518.115 864.065)" class="st1 st3">Reasoning</text>
		</g>
	</g>
	<line class="st4" x1="952.07" y1="300.93" x2="952.07" y2="669.33"/>
	<line class="st4" x1="1624.09" y1="668.56" x2="1624.09" y2="474.25"/>
	<line class="st4" x1="952.76" y1="474.25" x2="1624.09" y2="474.25"/>
	<line class="st4" x1="277.28" y1="670.11" x2="277.28" y2="475.81"/>
	<line class="st4" x1="950" y1="474.25" x2="278.67" y2="474.25"/>
</g>
</svg>
